<?xml version="1.0" standalone="no"?>
<!DOCTYPE svg PUBLIC "-//W3C//DTD SVG 20010904//EN"
 "http://www.w3.org/TR/2001/REC-SVG-20010904/DTD/svg10.dtd">
<svg version="1.0" xmlns="http://www.w3.org/2000/svg"
 width="1080.000000pt" height="1080.000000pt" viewBox="0 0 1080.000000 1080.000000"
 preserveAspectRatio="xMidYMid meet">
<metadata>
Created by potrace 1.11, written by Peter Selinger 2001-2013
</metadata>
<g transform="translate(0.000000,1080.000000) scale(0.100000,-0.100000)"
fill="#000000" stroke="none">
<path d="M5115 10794 c-336 -25 -472 -42 -705 -85 -907 -166 -1761 -570 -2490
-1177 -148 -124 -528 -504 -652 -652 -826 -992 -1268 -2204 -1268 -3480 0
-1276 442 -2488 1268 -3480 124 -148 504 -528 652 -652 727 -605 1579 -1009
2485 -1177 356 -66 582 -85 995 -85 413 0 639 19 995 85 900 167 1733 558
2457 1154 171 141 562 532 703 703 712 866 1123 1867 1227 2987 17 183 17 747
0 930 -104 1120 -515 2121 -1227 2987 -141 171 -532 562 -703 703 -864 711
-1836 1111 -2972 1225 -106 11 -672 21 -765 14z m415 -1800 c26 -8 74 -32 106
-54 73 -48 2344 -2320 2370 -2370 27 -52 26 -172 -3 -225 -28 -52 -67 -89
-123 -114 -44 -20 -63 -21 -622 -21 l-578 0 0 -1083 c0 -1165 1 -1137 -51
-1239 -27 -54 -110 -141 -163 -172 -100 -58 -67 -57 -1087 -54 l-935 3 -76 38
c-127 62 -212 174 -237 311 -8 41 -11 398 -11 1128 l0 1068 -571 0 c-405 0
-583 3 -610 12 -135 40 -208 215 -144 344 19 38 283 307 1192 1215 1104 1102
1171 1167 1231 1193 108 47 200 53 312 20z m2525 -6369 c213 -56 355 -272 316
-483 -34 -183 -175 -322 -357 -352 -80 -13 -5148 -13 -5228 0 -182 30 -323
169 -357 352 -31 167 53 345 202 435 111 66 -97 62 2764 62 2313 1 2607 -1
2660 -14z"/>
</g>
</svg>
